<svg width="30" height="30" viewBox="0 0 30 30" fill="none" xmlns="http://www.w3.org/2000/svg">
<path d="M20.3447 17.6491L16.1619 14.512V8.12163C16.1619 7.47909 15.6425 6.95972 15 6.95972C14.3574 6.95972 13.838 7.47909 13.838 8.12163V15.093C13.838 15.459 14.01 15.8041 14.3028 16.0225L18.9504 19.5082C19.1595 19.6651 19.4035 19.7406 19.6463 19.7406C20.0007 19.7406 20.3493 19.5814 20.577 19.2747C20.9629 18.7622 20.8583 18.0337 20.3447 17.6491Z" fill="white"/>
<path d="M15 0C6.7285 0 0 6.7285 0 15C0 23.2715 6.7285 30 15 30C23.2715 30 30 23.2715 30 15C30 6.7285 23.2715 0 15 0ZM15 27.6762C8.01123 27.6762 2.32377 21.9888 2.32377 15C2.32377 8.01123 8.01123 2.32377 15 2.32377C21.9899 2.32377 27.6762 8.01123 27.6762 15C27.6762 21.9888 21.9888 27.6762 15 27.6762Z" fill="white"/>
</svg>
