<svg width="37" height="37" viewBox="0 0 37 37" fill="none" xmlns="http://www.w3.org/2000/svg">
<path d="M18.5 0C11.1112 0 5.10001 6.0112 5.10001 13.3999C5.10001 22.5696 17.0917 36.0311 17.6023 36.5997C18.0818 37.1338 18.9191 37.1329 19.3978 36.5997C19.9083 36.0311 31.9 22.5696 31.9 13.3999C31.8999 6.0112 25.8887 0 18.5 0ZM18.5 33.9453C14.4642 29.1513 7.5131 19.6933 7.5131 13.4001C7.5131 7.34175 12.4418 2.41309 18.5 2.41309C24.5583 2.41309 29.4869 7.34175 29.4869 13.4C29.4868 19.6935 22.5368 29.1498 18.5 33.9453Z" fill="white"/>
<path d="M18.5 6.6582C14.7825 6.6582 11.7582 9.68259 11.7582 13.4001C11.7582 17.1176 14.7826 20.142 18.5 20.142C22.2174 20.142 25.2417 17.1176 25.2417 13.4001C25.2417 9.68259 22.2174 6.6582 18.5 6.6582ZM18.5 17.7289C16.1131 17.7289 14.1713 15.787 14.1713 13.4001C14.1713 11.0131 16.1132 9.0713 18.5 9.0713C20.8869 9.0713 22.8287 11.0131 22.8287 13.4001C22.8287 15.787 20.8869 17.7289 18.5 17.7289Z" fill="white"/>
</svg>
