<svg width="31" height="31" viewBox="0 0 31 31" fill="none" xmlns="http://www.w3.org/2000/svg">
<g clip-path="url(#clip0)">
<path d="M22.28 31C21.2793 31 20.2871 30.8231 19.3169 30.4706C15.0426 28.9179 11.0751 26.3889 7.84326 23.1571C4.6114 19.9253 2.08246 15.9578 0.529801 11.6835C0.0308547 10.3099 -0.116389 8.89191 0.0923072 7.46888C0.287805 6.13593 0.804128 4.84192 1.58551 3.72669C2.37035 2.60656 3.41668 1.6749 4.61134 1.03246C5.88532 0.347404 7.27584 0 8.7444 0C9.20115 0 9.5959 0.31913 9.69162 0.765705L11.2121 7.86145C11.281 8.18276 11.1822 8.51708 10.9499 8.74945L8.35177 11.3475C10.8027 16.2205 14.7798 20.1975 19.6528 22.6485L22.2508 20.0504C22.4832 19.8181 22.8176 19.7194 23.1388 19.7881L30.2346 21.3087C30.6812 21.4044 31.0003 21.7991 31.0003 22.2559C31.0003 23.7244 30.6529 25.115 29.9678 26.389C29.3253 27.5837 28.3937 28.63 27.2735 29.4148C26.1584 30.1962 24.8644 30.7125 23.5313 30.908C23.1137 30.9694 22.696 30.9999 22.28 31ZM7.97041 1.9798C6.03329 2.19364 4.31395 3.20897 3.1722 4.83853C1.8883 6.6709 1.5889 8.92467 2.35079 11.022C5.33588 19.2395 11.7609 25.6645 19.9784 28.6496C22.0757 29.4115 24.3294 29.1122 26.1619 27.8282C27.7914 26.6865 28.8068 24.9671 29.0206 23.03L23.2482 21.7931L20.5349 24.5064C20.2461 24.7952 19.8074 24.8719 19.438 24.6982C13.6748 21.9907 9.00971 17.3256 6.30217 11.5624C6.12858 11.1929 6.20523 10.7542 6.49397 10.4655L9.20733 7.75216L7.97041 1.9798Z" fill="white"/>
</g>
<defs>
<clipPath id="clip0">
<rect width="31" height="31" fill="white"/>
</clipPath>
</defs>
</svg>
