<svg width="60" height="60" viewBox="0 0 60 60" fill="none" xmlns="http://www.w3.org/2000/svg">
<path d="M51.2133 8.78672C45.5469 3.12059 38.0133 0 30 0C21.9867 0 14.4531 3.12059 8.78672 8.78672C3.12059 14.4531 0 21.9867 0 30C0 38.0133 3.12059 45.5469 8.78672 51.2133C14.4531 56.8794 21.9867 60 30 60C38.0133 60 45.5469 56.8794 51.2133 51.2133C56.8794 45.5469 60 38.0133 60 30C60 21.9867 56.8794 14.4531 51.2133 8.78672ZM30 56.4844C15.3964 56.4844 3.51562 44.6036 3.51562 30C3.51562 15.3964 15.3964 3.51562 30 3.51562C44.6036 3.51562 56.4844 15.3964 56.4844 30C56.4844 44.6036 44.6036 56.4844 30 56.4844Z" fill="white"/>
<path d="M43.9198 28.5749L22.826 13.3406C22.2909 12.9541 21.5843 12.9001 20.9966 13.2005C20.4089 13.501 20.0391 14.1055 20.0391 14.7656V45.2343C20.0391 45.8944 20.4089 46.4989 20.9966 46.7994C21.249 46.9285 21.5234 46.9921 21.7966 46.9921C22.1596 46.9921 22.5207 46.8799 22.826 46.6593L43.9198 31.4249C44.3773 31.0945 44.6484 30.5643 44.6484 29.9999C44.6484 29.4356 44.3775 28.9054 43.9198 28.5749ZM23.5547 41.7965V18.2034L39.8884 29.9999L23.5547 41.7965Z" fill="white"/>
</svg>
